<?xml version="1.0" encoding="UTF-8"?><svg id="_イヤー_2" xmlns="http://www.w3.org/2000/svg" viewBox="0 0 457.67 438.32"><defs><style>.cls-1{fill:#0f1010;}</style></defs><g id="_イヤー_1-2"><g><g><path class="cls-1" d="M28.62,428.5h-.17v6.1c0,1.02-.68,1.69-1.69,1.69H1.69c-1.02,0-1.69-.68-1.69-1.69v-111.76c0-1.02,.68-1.69,1.69-1.69H26.75c1.01,0,1.69,.68,1.69,1.69v38.78h.17c3.72-5.76,10.67-9.82,21.17-9.82,13.88,0,23.03,6.94,27.26,19.81,2.03,6.6,2.88,13.21,2.88,23.54s-.85,16.76-2.88,23.37c-4.23,12.87-13.38,19.81-27.26,19.81-10.5,0-17.44-4.06-21.17-9.82Zm21.33-20.49c.85-2.71,1.19-5.76,1.19-12.87s-.34-10.33-1.19-13.04c-1.69-4.74-5.08-6.94-10.16-6.94s-8.47,2.2-9.99,6.94c-1.02,2.71-1.36,5.76-1.36,13.04s.34,10.16,1.36,12.87c1.52,4.74,5.08,6.94,9.99,6.94s8.47-2.2,10.16-6.94Z"/><path class="cls-1" d="M93.46,414.11c-1.69-4.91-2.71-10.33-2.71-18.96s1.01-14.39,2.54-19.13c5.08-15.41,18.46-24.21,36.91-24.21,19.64,0,32.51,8.8,37.25,23.88,1.69,5.08,2.71,11.34,2.71,25.74,0,1.02-.68,1.69-1.86,1.69h-48.93c-.68,0-1.02,.34-1.02,1.02,.17,1.19,.34,2.37,.68,3.39,1.86,5.76,7.96,8.97,15.92,8.97,7.11,0,13.21-2.37,18.46-6.6,1.02-.85,1.69-.85,2.54,0l12.02,12.36c.85,.68,.68,1.86-.17,2.54-8.64,8.3-21.17,13.55-35.9,13.55-20.15,0-33.53-8.97-38.44-24.21Zm48.26-28.28c.68,0,1.02-.34,1.02-1.02,0-2.2-.17-3.73-.68-5.08-1.52-4.74-5.59-7.45-11.51-7.45s-9.99,2.71-11.51,7.45c-.34,1.36-.68,2.88-.68,5.08,0,.68,.34,1.02,1.02,1.02h22.35Z"/><path class="cls-1" d="M212.84,437.3c-20.49,0-28.62-8.3-28.62-28.95v-85.51c0-1.02,.68-1.69,1.69-1.69h25.06c1.02,0,1.69,.68,1.69,1.69v82.63c0,5.59,2.37,8.13,6.94,8.13h3.56c1.02,0,1.69,.68,1.69,1.69v20.32c0,1.02-.68,1.69-1.69,1.69h-10.33Z"/><path class="cls-1" d="M336.78,436.29c-1.01,0-1.69-.68-1.69-1.69v-47.07c0-7.28-3.39-12.02-10.16-12.02-6.27,0-9.99,4.57-9.99,12.02v47.07c0,1.02-.68,1.69-1.69,1.69h-25.06c-1.02,0-1.7-.68-1.7-1.69v-47.07c0-7.28-3.22-12.02-9.99-12.02s-10.16,4.57-10.16,12.02v47.07c0,1.02-.68,1.69-1.69,1.69h-25.06c-1.02,0-1.69-.68-1.69-1.69v-79.08c0-1.02,.68-1.69,1.69-1.69h25.06c1.01,0,1.69,.68,1.69,1.69v5.93h.17c3.72-5.42,10.84-9.65,21.17-9.65s17.27,3.73,21.67,10.16h.17c5.59-6.1,13.72-10.16,25.23-10.16,19.47,0,28.79,12.02,28.79,30.82v51.98c0,1.02-.68,1.69-1.69,1.69h-25.06Z"/><path class="cls-1" d="M379.95,414.45c-1.86-6.1-2.54-12.02-2.54-19.3s.68-13.38,2.54-19.47c5.08-15.75,19.47-23.88,37.59-23.88s32.34,8.13,37.59,23.88c1.86,6.1,2.54,12.02,2.54,19.47s-.68,13.21-2.54,19.3c-5.25,15.75-19.47,23.88-37.59,23.88s-32.51-8.13-37.59-23.88Zm47.75-6.44c.85-3.05,1.18-5.93,1.18-12.87s-.34-9.99-1.18-13.04c-1.69-4.74-5.25-6.94-10.16-6.94s-8.47,2.2-10.16,6.94c-.85,3.05-1.19,6.1-1.19,13.04s.34,9.82,1.19,12.87c1.69,4.74,5.25,6.94,10.16,6.94s8.47-2.2,10.16-6.94Z"/></g><g><path class="cls-1" d="M164.76,146.46C164.76,65.57,230.33,0,311.22,0h146.46V146.46c0,80.88-65.57,146.45-146.46,146.45s-146.46-65.57-146.46-146.45Z"/><path class="cls-1" d="M141.51,146.46c0,45.33,17.65,87.95,49.71,120,4.87,4.87,9.99,9.41,15.32,13.6-18.33,8.26-38.67,12.86-60.09,12.86C65.57,292.91,0,227.34,0,146.46V0H146.46c21.41,0,41.75,4.6,60.09,12.86-5.33,4.2-10.45,8.73-15.32,13.6-32.05,32.05-49.71,74.67-49.71,120Z"/></g></g></g></svg>