<?xml version="1.0" encoding="utf-8"?>
<!-- Generator: Adobe Illustrator 27.2.0, SVG Export Plug-In . SVG Version: 6.00 Build 0)  -->
<svg version="1.1" id="_レイヤー_2" xmlns="http://www.w3.org/2000/svg" xmlns:xlink="http://www.w3.org/1999/xlink" x="0px"
	 y="0px" viewBox="0 0 440 512" style="enable-background:new 0 0 440 512;" xml:space="preserve">
<style type="text/css">
	.st0{fill:#FFFFFF;}
</style>
<g id="Capa_1">
	<path class="st0" d="M420,160h-60v-20C360,62.8,297.2,0,220,0S80,62.8,80,140v20H20c-11.1,0-20,8.9-20,20v232
		c0,55.1,44.9,100,100,100h240c55.1,0,100-44.9,100-100V180C440,168.9,431,160,420,160z M120,140c0-55.1,44.9-100,100-100
		s100,44.9,100,100v20H120V140z M400,412c0,33.1-26.9,60-60,60H100c-33.1,0-60-26.9-60-60V200h40v60c0,11,8.9,20,20,20s20-9,20-20
		v-60h200v60c0,11,9,20,20,20s20-9,20-20v-60h40V412z"/>
</g>
</svg>
