<?xml version="1.0" encoding="UTF-8"?><svg id="_レイヤー_2" xmlns="http://www.w3.org/2000/svg" viewBox="0 0 170.99 39.63"><g id="_レイヤー_1-2"><g><path d="m20.29,4.56L22.84.42h1.57l-.05.27c-.15,0-.27.02-.37.06s-.18.09-.24.16c-.06.08-.11.18-.15.32-.04.14-.08.31-.12.52l-.48,2.74c-.04.23-.06.42-.07.55,0,.14.01.24.05.31.04.07.11.12.21.15.1.02.23.04.39.04l-.05.27h-2.27l.05-.27c.16,0,.3-.02.4-.05.1-.03.19-.07.26-.14.07-.07.12-.17.16-.3.04-.13.08-.3.12-.52l.57-3.25h-.07l-2.85,4.59h-.15l-1.2-4.59h-.03l-.56,3.2c-.04.23-.06.42-.07.55,0,.14.01.24.05.31s.11.12.21.15c.1.02.23.04.39.04l-.05.27h-1.95l.05-.27c.16,0,.3-.02.4-.05.11-.03.19-.07.26-.14.07-.07.12-.17.16-.3.04-.13.08-.3.12-.52l.5-2.84c.03-.2.05-.36.06-.49,0-.13,0-.23-.04-.3-.04-.07-.1-.13-.19-.16s-.21-.05-.35-.06l.05-.27h1.67l1.03,4.14h.03Z"/><path d="m26.55,1.29c-.05-.12-.1-.22-.14-.3-.05-.08-.1-.14-.15-.19-.05-.05-.12-.08-.18-.09-.07-.02-.15-.02-.25-.02l.05-.27h2.21l-.05.27c-.23,0-.4.02-.5.05-.1.03-.16.1-.18.19-.02.1.01.24.09.42l.76,1.85h.03l1.03-1.33c.19-.25.33-.45.42-.6.09-.14.14-.26.16-.35s0-.15-.07-.19c-.06-.04-.18-.05-.34-.05l.05-.27h1.6l-.05.27c-.1,0-.19.01-.27.04s-.17.08-.27.17-.21.2-.34.35c-.13.15-.28.35-.47.59l-1.4,1.82-.15.83c-.04.23-.06.41-.07.55,0,.14,0,.24.05.32s.11.12.2.15c.1.03.23.04.4.04l-.05.27h-2.27l.05-.27c.17,0,.3-.01.41-.04.1-.03.19-.07.26-.15.07-.07.12-.17.16-.3.04-.13.08-.3.12-.52l.15-.85-.98-2.39Z"/><path d="m38.69,4.56l2.55-4.14h1.57l-.05.27c-.15,0-.27.02-.37.06s-.18.09-.24.16c-.06.08-.11.18-.15.32-.04.14-.08.31-.12.52l-.48,2.74c-.04.23-.06.42-.07.55,0,.14.01.24.05.31.04.07.11.12.21.15.1.02.23.04.39.04l-.05.27h-2.27l.05-.27c.16,0,.3-.02.4-.05.1-.03.19-.07.26-.14.07-.07.12-.17.16-.3.04-.13.08-.3.12-.52l.57-3.25h-.07l-2.85,4.59h-.15l-1.2-4.59h-.03l-.56,3.2c-.04.23-.06.42-.07.55,0,.14.01.24.05.31s.11.12.21.15c.1.02.23.04.39.04l-.05.27h-1.95l.05-.27c.16,0,.3-.02.4-.05.11-.03.19-.07.26-.14.07-.07.12-.17.16-.3.04-.13.08-.3.12-.52l.5-2.84c.03-.2.05-.36.06-.49,0-.13,0-.23-.04-.3-.04-.07-.1-.13-.19-.16s-.21-.05-.35-.06l.05-.27h1.67l1.03,4.14h.03Z"/><path d="m46.09,2.85c.25,0,.47-.02.64-.05s.32-.08.43-.14c.11-.07.2-.15.26-.25.06-.1.11-.22.13-.36h.25l-.34,1.91h-.25c.02-.14.03-.26,0-.36-.02-.1-.08-.19-.16-.26-.09-.07-.21-.12-.38-.15s-.38-.05-.64-.05l-.28,1.58c-.03.15-.03.28-.01.38.02.1.07.18.15.24.08.06.19.11.34.13.14.03.33.04.55.04.25,0,.46-.02.64-.05.18-.04.33-.09.47-.18s.24-.19.34-.33c.09-.14.18-.31.27-.51h.27l-.35,1.38h-4.35l.05-.27c.16,0,.3-.02.4-.04.1-.02.19-.06.26-.12s.12-.14.15-.24c.04-.1.07-.24.1-.4l.58-3.26c.03-.16.04-.29.05-.4,0-.1-.02-.18-.06-.24-.04-.06-.1-.1-.19-.12s-.21-.04-.36-.05l.05-.27h4.05l-.15,1.23h-.25c0-.19-.01-.34-.06-.46-.04-.12-.11-.21-.21-.28-.1-.07-.23-.12-.39-.15-.16-.03-.36-.04-.6-.04h-.89c-.08,0-.13.04-.14.12l-.35,2.01Z"/><path d="m56.51,1.76h-.29c.02-.2.02-.37,0-.5-.03-.14-.08-.24-.16-.32s-.19-.13-.33-.16c-.14-.03-.31-.05-.51-.05-.17,0-.31,0-.42.01-.11,0-.19.02-.25.04-.06.02-.1.04-.12.07-.02.03-.03.06-.04.1l-.66,3.75c-.03.15-.04.28-.04.38,0,.11.03.2.08.26.05.07.13.12.25.15.11.04.27.06.46.06l-.05.27h-2.65l.05-.27c.2,0,.36-.02.49-.06.13-.03.23-.09.3-.15.07-.07.13-.16.17-.26.04-.11.07-.24.1-.38l.66-3.75s0-.08,0-.1c-.01-.03-.04-.05-.09-.07s-.11-.03-.2-.04c-.09,0-.21-.01-.36-.01-.18,0-.35,0-.51.02-.16.01-.3.05-.43.12-.13.07-.24.17-.33.31-.09.14-.17.33-.21.58h-.26l.24-1.34h5.29l-.17,1.34Z"/><path d="m62.76,4.7c-.03.18-.05.32-.05.43,0,.11.02.19.06.25.04.06.11.1.21.12.1.02.23.04.39.04l-.05.27h-2.27l.05-.27c.16,0,.3-.02.4-.04.1-.02.19-.06.26-.12.07-.06.12-.14.15-.24s.07-.24.1-.4l.27-1.52h-2.83l-.26,1.47c-.03.18-.05.32-.05.43,0,.11.02.19.06.25.04.06.11.1.21.12.1.02.23.04.39.04l-.05.27h-2.27l.05-.27c.16,0,.3-.02.4-.04.1-.02.19-.06.26-.12s.12-.14.15-.24c.04-.1.07-.24.1-.4l.58-3.26c.03-.16.04-.29.05-.4,0-.1-.02-.18-.06-.24-.04-.06-.1-.1-.19-.12s-.21-.04-.36-.05l.05-.27h2.13l-.05.27c-.15,0-.27.02-.37.04-.09.02-.17.07-.23.13-.06.06-.11.14-.14.25-.04.11-.07.25-.1.43l-.24,1.34h2.83l.25-1.39c.03-.16.04-.29.05-.4,0-.1-.02-.18-.06-.24-.04-.06-.1-.1-.19-.12s-.21-.04-.36-.05l.05-.27h2.13l-.05.27c-.15,0-.27.02-.37.04-.1.02-.17.07-.23.13-.06.06-.11.14-.14.25-.04.11-.07.25-.1.43l-.56,3.16Z"/><path d="m69.17.35c.41,0,.78.07,1.11.22.33.15.6.34.82.6.22.25.37.55.46.89.09.34.1.71.03,1.11s-.21.73-.42,1.06c-.21.33-.47.62-.77.86s-.65.44-1.03.58c-.38.14-.77.21-1.18.21s-.77-.07-1.1-.21c-.33-.14-.6-.34-.82-.58-.22-.25-.37-.53-.47-.86-.09-.33-.11-.69-.04-1.06.07-.4.21-.77.42-1.11.21-.34.47-.64.77-.89.31-.25.65-.45,1.03-.6.38-.14.78-.22,1.19-.22Zm-.91,5.15c.31,0,.59-.05.86-.16s.5-.26.71-.46.39-.44.53-.73.25-.61.31-.96c.07-.37.08-.71.04-1.01-.04-.3-.13-.56-.26-.77s-.32-.38-.54-.49c-.23-.11-.49-.17-.8-.17s-.6.06-.86.17c-.27.11-.51.28-.72.49-.21.21-.39.47-.53.77-.15.3-.25.64-.32,1.01s-.07.68-.03.96c.04.29.13.53.27.73.14.2.32.35.55.46.23.11.5.16.8.16Z"/><path d="m73.04,5.81l.05-.27c.18,0,.32-.02.44-.04.11-.02.21-.06.28-.12.07-.06.13-.14.16-.24.04-.1.07-.23.1-.4l.58-3.26c.03-.16.04-.29.05-.4,0-.1-.02-.18-.06-.24-.04-.06-.1-.1-.19-.12s-.21-.04-.36-.05l.05-.27h2.46c.42,0,.8.07,1.13.21.33.14.61.33.82.58.22.25.36.54.45.88.08.34.09.71.02,1.11s-.2.73-.39,1.05c-.19.32-.43.59-.72.82s-.61.41-.97.54c-.36.13-.75.19-1.15.19h-2.74Zm2.58-5.05c-.08,0-.13.04-.14.12l-.67,3.79c-.09.53.21.8.9.8.64,0,1.16-.19,1.57-.57s.68-.94.81-1.68c.07-.39.08-.73.04-1.04s-.13-.56-.27-.77c-.14-.21-.32-.37-.55-.48-.23-.11-.5-.17-.81-.17h-.89Z"/><path d="m85.28,4.7c-.03.18-.05.33-.05.44,0,.11.01.2.05.26.04.06.09.11.17.13.08.02.19.04.33.04l-.04.25h-2.01l.04-.25c.14,0,.26-.02.35-.05.09-.03.17-.07.23-.13.06-.06.11-.14.14-.25.03-.1.07-.24.1-.4l.16-.9c.05-.27.08-.49.11-.67.02-.18.03-.3.02-.36,0-.11-.04-.18-.12-.22s-.23-.06-.47-.06l.04-.25,1.42-.27-.47,2.67Zm-.08-4.09c.02-.12.08-.22.18-.31s.21-.13.33-.13.22.04.29.13.09.19.07.31-.08.22-.18.31-.21.13-.33.13-.22-.04-.29-.13-.09-.19-.07-.31Z"/><path d="m87.94,5.81h-.15l.21-1.2h.17c.07.66.34.99.82.99.19,0,.34-.05.47-.14.13-.09.21-.23.24-.42.01-.07.01-.13,0-.18-.01-.05-.04-.1-.09-.15-.05-.05-.12-.12-.21-.19-.09-.07-.22-.16-.37-.27-.14-.1-.26-.19-.36-.27s-.19-.17-.25-.26c-.06-.09-.11-.18-.13-.28-.02-.1-.02-.21,0-.34.03-.16.08-.3.16-.44.08-.13.17-.25.28-.34s.23-.17.37-.22c.14-.05.28-.08.43-.08.13,0,.25.02.38.06.13.04.24.09.33.16l.17-.15h.13l-.18,1.01h-.18c-.05-.28-.13-.49-.23-.61-.1-.12-.24-.18-.42-.18-.16,0-.29.04-.4.13s-.18.2-.21.35c-.01.08-.01.15,0,.21.02.06.05.12.09.17.05.06.11.11.18.17.08.06.17.12.28.2.18.13.33.24.46.34.12.1.22.19.29.29.07.1.12.19.14.3.02.1.02.22,0,.35-.06.33-.21.59-.46.78-.25.19-.55.28-.9.28s-.66-.1-.88-.31l-.18.25Z"/><path d="m97.9,3.44l.05-.29c.1-.57-.09-.85-.58-.85-.08,0-.15,0-.21.02-.06.01-.11.04-.15.07-.04.03-.09.08-.13.14-.04.06-.08.14-.13.22-.08.14-.14.23-.2.27-.06.04-.13.07-.23.07-.23,0-.33-.12-.29-.35s.19-.4.45-.52c.26-.12.61-.19,1.05-.19.47,0,.78.08.95.25.17.17.22.45.15.84l-.28,1.57c-.09.53-.04.8.17.8.07,0,.13,0,.19-.02.06-.02.12-.06.18-.13l.07.17c-.07.11-.19.2-.36.27-.16.07-.32.11-.49.11-.21,0-.35-.07-.42-.2-.08-.13-.09-.31-.05-.55h-.04c-.16.23-.36.41-.6.54-.24.13-.49.2-.75.2-.29,0-.51-.07-.65-.22-.14-.15-.19-.35-.15-.6.02-.11.06-.22.12-.32s.14-.2.24-.29c.1-.09.24-.19.4-.28.16-.09.35-.18.58-.28l1.09-.44Zm-.05.3c-.28.1-.53.2-.73.3-.2.1-.37.2-.5.29-.13.1-.23.2-.29.29-.07.1-.11.2-.13.3-.03.15,0,.28.09.38.09.1.21.15.38.15.12,0,.24-.03.36-.09.12-.06.22-.14.32-.25.1-.1.18-.23.25-.37.07-.14.12-.29.15-.45l.1-.55Z"/><path d="m104.05,5.81h-.15l.21-1.2h.17c.07.66.34.99.82.99.19,0,.34-.05.47-.14.13-.09.21-.23.24-.42.01-.07.01-.13,0-.18-.01-.05-.04-.1-.09-.15-.05-.05-.12-.12-.21-.19-.09-.07-.22-.16-.37-.27-.14-.1-.26-.19-.36-.27s-.19-.17-.25-.26c-.06-.09-.11-.18-.13-.28-.02-.1-.02-.21,0-.34.03-.16.08-.3.16-.44.08-.13.17-.25.28-.34s.23-.17.37-.22c.14-.05.28-.08.43-.08.13,0,.25.02.38.06.13.04.24.09.33.16l.17-.15h.13l-.18,1.01h-.18c-.05-.28-.13-.49-.23-.61-.1-.12-.24-.18-.42-.18-.16,0-.29.04-.4.13s-.18.2-.21.35c-.01.08-.01.15,0,.21.02.06.05.12.09.17.05.06.11.11.18.17.08.06.17.12.28.2.18.13.33.24.46.34.12.1.22.19.29.29.07.1.12.19.14.3.02.1.02.22,0,.35-.06.33-.21.59-.46.78-.25.19-.55.28-.9.28s-.66-.1-.88-.31l-.18.25Z"/><path d="m110.96,2.03c.27,0,.51.05.73.14.22.1.41.23.56.4.15.17.26.37.32.6s.07.48.02.76-.15.55-.3.78c-.15.24-.33.44-.54.62-.21.17-.44.31-.7.41-.26.1-.52.15-.78.15s-.5-.05-.72-.14c-.22-.1-.4-.23-.55-.4-.15-.17-.25-.38-.31-.62-.06-.24-.07-.5-.02-.79s.14-.53.29-.76c.14-.23.32-.43.53-.6.21-.17.44-.3.69-.39.25-.09.51-.14.77-.14Zm-.06.34c-.17,0-.34.04-.49.11-.16.07-.3.18-.42.32-.12.14-.23.3-.32.5-.09.19-.15.41-.19.64s-.05.46-.04.66c.02.2.07.36.14.5.08.14.18.24.3.32.13.07.28.11.46.11s.34-.04.5-.11c.16-.07.3-.18.43-.32.13-.14.24-.31.33-.5.09-.2.16-.41.2-.65s.05-.45.03-.64c-.02-.19-.07-.36-.15-.49s-.18-.25-.31-.32c-.13-.08-.29-.12-.46-.12Z"/><path d="m115.57,4.72c-.03.18-.05.32-.05.43,0,.11,0,.19.04.25s.09.1.17.13c.08.02.18.04.32.04l-.04.25h-1.93l.04-.25c.14,0,.26-.02.34-.05.09-.03.16-.07.22-.12s.11-.13.14-.23c.03-.1.07-.23.09-.4l.53-3.02c.04-.25.08-.46.1-.63.02-.17.03-.29.03-.35,0-.11-.05-.18-.13-.22-.08-.04-.23-.06-.46-.06l.04-.24,1.37-.26-.83,4.72Z"/><path d="m119.52,4.7c-.03.18-.05.33-.05.44,0,.11.01.2.05.26.04.06.09.11.17.13.08.02.19.04.33.04l-.04.25h-2.01l.04-.25c.14,0,.26-.02.35-.05.09-.03.17-.07.23-.13.06-.06.11-.14.14-.25.03-.1.07-.24.1-.4l.16-.9c.05-.27.08-.49.11-.67.02-.18.03-.3.02-.36,0-.11-.04-.18-.12-.22s-.23-.06-.47-.06l.04-.25,1.42-.27-.47,2.67Zm-.08-4.09c.02-.12.08-.22.18-.31s.21-.13.33-.13.22.04.29.13.09.19.07.31-.08.22-.18.31-.21.13-.33.13-.22-.04-.29-.13-.09-.19-.07-.31Z"/><path d="m124.94,5.22h-.03c-.21.24-.42.41-.62.51-.21.1-.44.15-.7.15s-.5-.05-.71-.14c-.2-.1-.37-.23-.5-.4-.13-.17-.22-.37-.27-.61-.05-.24-.05-.5,0-.78s.14-.53.27-.77c.13-.24.29-.44.49-.61s.41-.3.65-.4c.24-.1.49-.14.75-.14.22,0,.42.04.58.11.16.07.31.19.44.36l.13-.71c.05-.27.08-.49.11-.67s.04-.3.03-.36c0-.1-.06-.17-.16-.22s-.27-.06-.51-.06l.04-.21,1.48-.27-.71,4.04c-.06.32-.1.59-.13.79-.03.21-.04.36-.04.44,0,.06.01.1.03.14.01.04.04.07.08.09s.09.04.15.05c.07,0,.15.01.26.01l-.04.24-1.18.08.12-.66Zm.13-1.55c.04-.24.06-.43.06-.55,0-.13-.03-.24-.09-.33-.08-.14-.2-.25-.35-.32s-.31-.11-.47-.11c-.34,0-.62.14-.84.42-.22.28-.38.65-.46,1.13-.04.25-.06.47-.05.67s.04.37.11.51c.06.14.15.25.26.33.11.08.26.12.42.12.08,0,.17,0,.26-.03.09-.02.18-.05.27-.09s.17-.09.25-.14c.08-.05.15-.12.21-.19.08-.1.15-.23.21-.37.05-.14.1-.34.15-.59l.08-.46Z"/><path d="m132.74,2.6h.03c.18-.18.37-.32.56-.42s.4-.15.63-.15c.27,0,.5.05.71.14.2.1.37.23.51.4.13.17.22.38.27.61.05.24.05.49,0,.77s-.14.54-.28.78c-.13.24-.3.44-.49.61-.19.17-.41.3-.65.39-.24.09-.49.14-.75.14-.21,0-.4-.04-.57-.11-.16-.07-.31-.19-.43-.35l-.18,1.02c-.03.19-.05.34-.05.45,0,.11.02.2.07.26.04.06.12.1.22.13s.24.04.41.04l-.04.25h-2.16l.04-.25c.14,0,.26-.02.35-.04s.17-.07.23-.13c.06-.06.11-.14.15-.25.04-.1.07-.24.1-.41l.46-2.62c.05-.27.08-.49.11-.67.02-.17.03-.29.02-.36,0-.11-.04-.19-.12-.23s-.23-.06-.47-.06l.04-.24,1.39-.27-.1.55Zm.17.2c-.08.09-.14.2-.2.33s-.1.29-.13.5l-.1.55c-.02.13-.04.23-.05.33,0,.09-.01.17,0,.23s.01.12.03.17c.01.05.04.1.06.15.08.15.19.27.32.35s.28.12.45.12c.32,0,.61-.14.85-.41.25-.27.41-.65.5-1.14.04-.24.05-.46.04-.66s-.06-.37-.14-.51c-.07-.14-.17-.25-.29-.33-.12-.08-.27-.12-.44-.12s-.33.04-.49.12c-.16.08-.29.19-.41.33Z"/><path d="m140.66,5.16c-.48.48-1.02.72-1.6.72-.28,0-.52-.05-.72-.14-.21-.09-.38-.22-.51-.39-.13-.17-.22-.36-.27-.59-.05-.23-.05-.49,0-.77s.14-.55.28-.79.3-.45.51-.62c.2-.17.43-.31.68-.41.25-.1.52-.15.8-.15.45,0,.78.12.99.37.2.25.27.6.19,1.05-.01.07-.03.1-.06.12-.03.01-.09.02-.18.02h-2.3s-.03.08-.05.14c-.01.05-.03.11-.04.18-.04.24-.05.46-.03.66.02.2.08.37.16.51.08.14.2.25.33.33.14.08.3.12.49.12.2,0,.39-.04.57-.13s.38-.23.59-.42l.18.2Zm-.82-1.89c.09,0,.17,0,.23,0,.06,0,.1-.01.13-.03.03-.01.05-.03.07-.06.01-.03.02-.06.03-.1.04-.21,0-.39-.12-.51s-.29-.19-.53-.19c-.5,0-.87.3-1.1.9h1.29Z"/><path d="m144.06,4.7c-.03.19-.06.34-.07.45-.01.11,0,.2.03.26.03.06.08.1.15.12.07.02.17.03.31.04l-.04.25h-1.86l.04-.25c.14,0,.25-.02.33-.04.08-.02.15-.06.2-.12s.09-.14.12-.24.06-.25.09-.42l.14-.82c.06-.32.1-.56.12-.74s.02-.31,0-.39c-.03-.08-.08-.13-.16-.15-.08-.02-.2-.02-.35-.02l.04-.25,1.27-.27-.05.87h.03c.09-.14.18-.27.3-.39.11-.12.23-.22.35-.3s.24-.15.37-.19.25-.07.37-.07c.15,0,.26.04.33.11s.1.17.08.29c-.02.11-.07.2-.15.26-.08.06-.19.09-.32.09-.07,0-.14,0-.18-.03-.05-.02-.09-.04-.13-.06-.04-.02-.07-.04-.1-.06s-.07-.03-.11-.03c-.13,0-.27.08-.42.24s-.29.37-.4.61c-.06.14-.12.29-.17.46-.05.17-.09.35-.13.54l-.04.24Z"/><path d="m148.08,2.21h.79l.09-.5c.09-.54.31-.96.65-1.26.34-.3.76-.45,1.29-.45.29,0,.52.04.68.13.17.09.24.2.21.34-.02.09-.06.17-.13.23-.07.06-.15.09-.24.09-.06,0-.11-.02-.17-.05-.06-.03-.13-.09-.22-.18-.1-.1-.18-.16-.24-.19-.06-.03-.13-.05-.22-.05-.28,0-.51.14-.68.43-.06.09-.11.21-.15.34-.04.14-.08.32-.12.56l-.1.55h1.13l-.06.33h-1.13l-.38,2.14c-.03.17-.05.31-.04.43,0,.11.02.2.06.27.04.07.11.11.2.14.09.03.21.04.36.05l-.04.25h-1.99l.04-.25c.13,0,.24-.02.32-.04.08-.02.15-.06.2-.12.05-.06.1-.14.13-.25.03-.1.06-.25.1-.42l.39-2.2h-.79l.06-.33Z"/><path d="m155.47,3.22c.03-.19.06-.34.07-.45.01-.11,0-.19-.03-.25-.03-.06-.08-.1-.15-.12s-.18-.04-.31-.05l.04-.25h1.27l-.38,2.15c-.05.27-.08.48-.1.65s-.03.29-.03.38c0,.06,0,.11.02.14.01.04.04.06.08.08s.09.04.16.04c.07,0,.15.01.26.01l-.04.25-1.17.08.07-.84h-.03c-.23.29-.47.5-.72.63-.25.13-.51.2-.76.2-.2,0-.38-.04-.55-.11-.17-.07-.29-.17-.36-.3-.06-.1-.09-.25-.1-.43,0-.18.02-.42.07-.71l.2-1.11c.03-.19.06-.34.07-.45.01-.11,0-.19-.03-.25-.03-.06-.08-.1-.15-.12-.07-.02-.18-.04-.31-.05l.04-.25h1.27l-.34,1.91c-.09.51-.1.88-.02,1.11.08.23.25.34.51.34.41,0,.78-.27,1.1-.8.03-.06.06-.11.08-.15.02-.05.04-.1.06-.15.02-.06.04-.12.05-.19.02-.07.03-.15.05-.25l.12-.69Z"/><path d="m159.75,4.69c-.03.2-.06.35-.07.46-.01.11,0,.2.03.26.03.06.08.1.15.12.07.02.17.03.31.04l-.04.25h-1.86l.04-.25c.14,0,.25-.02.33-.04.08-.02.15-.06.2-.11s.09-.14.12-.24c.03-.1.06-.25.09-.42l.16-.9c.05-.27.08-.49.11-.67.02-.18.03-.3.03-.36,0-.06-.01-.11-.02-.14-.01-.04-.04-.06-.08-.08s-.09-.04-.16-.04c-.07,0-.15-.01-.26-.01l.04-.25,1.19-.27-.03.7h.04c.25-.24.5-.41.75-.53s.52-.17.8-.17c.29,0,.53.06.71.18.18.12.29.29.33.51h.03c.21-.22.45-.39.72-.51.27-.12.54-.18.82-.18.22,0,.41.04.58.11s.29.17.36.3c.07.11.1.25.1.42,0,.18-.02.41-.07.72l-.2,1.11c-.03.19-.05.34-.06.46s0,.2.03.26c.03.06.08.1.15.12.07.02.18.03.31.04l-.04.25h-1.86l.04-.25c.13,0,.24-.02.32-.04s.15-.06.2-.12c.05-.06.09-.14.12-.24s.06-.24.09-.42l.16-.88c.05-.27.07-.49.08-.68,0-.18-.02-.33-.06-.45s-.12-.2-.21-.25c-.1-.05-.22-.08-.37-.08-.21,0-.41.06-.61.17-.2.11-.37.27-.5.46-.03.05-.06.09-.08.14s-.05.09-.06.15c-.02.05-.04.12-.05.19-.02.07-.03.17-.05.28l-.16.89c-.03.19-.06.34-.07.46s0,.2.03.26c.03.06.08.1.16.12.08.02.18.03.31.04l-.04.25h-1.86l.04-.25c.13,0,.24-.02.32-.04.08-.02.15-.06.2-.11.05-.06.09-.14.12-.24s.06-.25.09-.42l.16-.88c.05-.27.07-.5.08-.68,0-.18-.01-.33-.06-.45-.04-.11-.11-.2-.21-.24-.09-.05-.22-.07-.36-.07-.21,0-.42.06-.62.17-.2.11-.37.27-.5.46-.03.05-.06.09-.08.14s-.05.09-.06.15-.04.12-.05.19-.03.17-.05.28l-.16.89Z"/><path d="m170.62,5.16c-.48.48-1.02.72-1.6.72-.28,0-.52-.05-.72-.14-.21-.09-.38-.22-.51-.39-.13-.17-.22-.36-.27-.59-.05-.23-.05-.49,0-.77s.14-.55.28-.79c.14-.24.3-.45.5-.62.2-.17.43-.31.68-.41.25-.1.52-.15.8-.15.45,0,.78.12.99.37.2.25.27.6.19,1.05-.01.07-.03.1-.06.12-.03.01-.09.02-.18.02h-2.3s-.03.08-.04.14c-.02.05-.03.11-.04.18-.04.24-.05.46-.03.66.02.2.08.37.16.51.08.14.2.25.34.33.14.08.3.12.49.12.2,0,.39-.04.57-.13s.38-.23.59-.42l.18.2Zm-.82-1.89c.09,0,.17,0,.23,0,.06,0,.1-.01.13-.03.03-.01.05-.03.07-.06.01-.03.02-.06.03-.1.04-.21,0-.39-.12-.51-.11-.13-.29-.19-.53-.19-.5,0-.87.3-1.1.9h1.29Z"/><path d="m43.05,18.54l.05-.26c.27-.14.49-.29.66-.43.17-.14.3-.32.41-.52h.2l-.16.88h.94l-.06.33h-.94l-.38,2.13c-.03.16-.05.3-.05.41,0,.11,0,.2.03.27.03.07.07.12.12.14.06.03.13.04.22.04.12,0,.22-.02.31-.07.09-.05.19-.13.29-.25l.15.13c-.1.17-.23.3-.41.4-.18.09-.38.14-.62.14-.31,0-.53-.07-.66-.22s-.18-.36-.13-.63l.44-2.48h-.42Z"/><path d="m48.09,20.7c-.03.19-.06.34-.07.45-.01.11,0,.2.03.26.03.06.08.1.15.12.07.02.17.03.31.04l-.04.25h-1.86l.04-.25c.14,0,.25-.02.33-.04.08-.02.15-.06.2-.11s.09-.14.12-.24.06-.25.09-.42l.52-2.93c.05-.28.08-.49.11-.66.02-.16.03-.29.03-.37,0-.06,0-.1-.02-.14-.01-.03-.04-.06-.08-.08s-.09-.04-.16-.05c-.07,0-.15-.01-.26-.01l.04-.24,1.34-.27-.47,2.67h.03c.09-.09.19-.18.31-.26s.24-.14.37-.2c.13-.06.27-.1.41-.13.14-.03.27-.05.4-.05.21,0,.41.04.57.11s.29.17.36.3c.06.11.09.25.1.42,0,.17-.02.41-.07.71l-.2,1.12c-.03.19-.06.34-.07.45-.01.11,0,.19.03.26.03.06.08.1.15.12.07.02.17.03.31.04l-.04.25h-1.85l.04-.25c.13,0,.24-.02.32-.04.08-.02.15-.06.2-.12s.09-.14.12-.24.06-.25.09-.42l.16-.88c.09-.52.1-.9.01-1.12-.08-.22-.27-.33-.55-.33-.22,0-.43.06-.63.17s-.37.27-.5.46c-.03.05-.06.1-.08.14-.02.04-.05.09-.07.15-.02.06-.04.12-.05.19s-.03.16-.05.27l-.16.9Z"/><path d="m55.59,19.44l.05-.29c.1-.57-.09-.85-.58-.85-.08,0-.15,0-.21.02-.06.01-.11.04-.15.07-.04.03-.09.08-.13.14-.04.06-.08.14-.13.22-.08.14-.14.23-.2.27-.06.04-.13.07-.23.07-.23,0-.33-.12-.29-.35s.19-.4.45-.52c.26-.12.61-.19,1.05-.19.47,0,.78.08.95.25.17.17.22.45.15.84l-.28,1.57c-.09.53-.04.8.17.8.07,0,.13,0,.19-.02.06-.02.12-.06.18-.13l.07.17c-.07.11-.19.2-.36.27-.16.07-.32.11-.49.11-.21,0-.35-.07-.42-.2-.08-.13-.09-.31-.05-.55h-.04c-.16.23-.36.41-.6.54-.24.13-.49.2-.75.2-.29,0-.51-.07-.65-.22-.14-.15-.19-.35-.15-.6.02-.11.06-.22.12-.32s.14-.2.24-.29c.1-.09.24-.19.4-.28.16-.09.35-.18.58-.28l1.09-.44Zm-.05.3c-.28.1-.53.2-.73.3-.2.1-.37.2-.5.29-.13.1-.23.2-.29.29-.07.1-.11.2-.13.3-.03.15,0,.28.09.38.09.1.21.15.38.15.12,0,.24-.03.36-.09.12-.06.22-.14.32-.25.1-.1.18-.23.25-.37.07-.14.12-.29.15-.45l.1-.55Z"/><path d="m58.85,18.54l.05-.26c.27-.14.49-.29.66-.43.17-.14.3-.32.41-.52h.2l-.16.88h.94l-.06.33h-.94l-.38,2.13c-.03.16-.05.3-.05.41,0,.11,0,.2.03.27.03.07.07.12.12.14.06.03.13.04.22.04.12,0,.22-.02.31-.07.09-.05.19-.13.29-.25l.15.13c-.1.17-.23.3-.41.4-.18.09-.38.14-.62.14-.31,0-.53-.07-.66-.22s-.18-.36-.13-.63l.44-2.48h-.42Z"/><path d="m67.1,21.88h-.26l-.4-2.91c-.02-.13-.04-.24-.06-.32-.02-.08-.06-.14-.1-.19-.04-.05-.1-.08-.17-.09-.07-.02-.15-.02-.25-.02l.04-.25h1.85l-.04.25c-.18,0-.31.02-.4.06-.08.04-.13.11-.15.22,0,.05-.01.1,0,.16,0,.06,0,.14.01.23l.18,1.67h.03l1.49-2.6h.22l.47,2.6h.03l.62-1.13c.08-.15.15-.28.21-.39.06-.1.1-.19.13-.27s.06-.13.08-.18c.02-.05.03-.09.04-.13.02-.1,0-.17-.06-.2-.06-.03-.18-.05-.37-.05l.04-.25h1.4l-.04.25c-.07,0-.13.01-.18.03s-.11.06-.17.12-.13.15-.2.26c-.07.11-.16.26-.27.44l-1.56,2.68h-.26l-.4-2.58h-.03l-1.48,2.58Z"/><path d="m74.51,20.7c-.03.18-.05.33-.05.44,0,.11.01.2.05.26.04.06.09.11.17.13.08.02.19.04.33.04l-.04.25h-2.01l.04-.25c.14,0,.26-.02.35-.05.09-.03.17-.07.23-.13.06-.06.11-.14.14-.25.03-.1.07-.24.1-.4l.16-.9c.05-.27.08-.49.11-.67.02-.18.03-.3.02-.36,0-.11-.04-.18-.12-.22s-.23-.06-.47-.06l.04-.25,1.42-.27-.47,2.67Zm-.08-4.09c.02-.12.08-.22.18-.31s.21-.13.33-.13.22.04.29.13.09.19.07.31-.08.22-.18.31-.21.13-.33.13-.22-.04-.29-.13-.09-.19-.07-.31Z"/><path d="m78.36,20.72c-.03.18-.05.32-.05.43,0,.11,0,.19.04.25s.09.1.17.13c.08.02.18.04.32.04l-.04.25h-1.93l.04-.25c.14,0,.26-.02.34-.05.09-.03.16-.07.22-.12s.11-.13.14-.23c.03-.1.07-.23.09-.4l.53-3.02c.04-.25.08-.46.1-.63.02-.17.03-.29.03-.35,0-.11-.05-.18-.13-.22-.08-.04-.23-.06-.46-.06l.04-.24,1.37-.26-.83,4.72Z"/><path d="m82.2,20.72c-.03.18-.05.32-.05.43,0,.11,0,.19.04.25s.09.1.17.13c.08.02.18.04.32.04l-.04.25h-1.93l.04-.25c.14,0,.26-.02.34-.05.09-.03.16-.07.22-.12s.11-.13.14-.23c.03-.1.07-.23.09-.4l.53-3.02c.04-.25.08-.46.1-.63.02-.17.03-.29.03-.35,0-.11-.05-.18-.13-.22-.08-.04-.23-.06-.46-.06l.04-.24,1.37-.26-.83,4.72Z"/><path d="m89.01,20.7c-.03.19-.06.34-.07.45-.01.11,0,.2.03.26.03.06.08.1.15.12.07.02.17.03.31.04l-.04.25h-1.86l.04-.25c.14,0,.25-.02.33-.04.08-.02.15-.06.2-.11s.09-.14.12-.24.06-.25.09-.42l.52-2.93c.05-.28.08-.49.11-.66.02-.16.03-.29.03-.37,0-.06,0-.1-.02-.14-.01-.03-.04-.06-.08-.08s-.09-.04-.16-.05c-.07,0-.15-.01-.26-.01l.04-.24,1.34-.27-.47,2.67h.03c.09-.09.19-.18.31-.26s.24-.14.37-.2c.13-.06.27-.1.41-.13.14-.03.27-.05.4-.05.21,0,.41.04.57.11s.29.17.36.3c.06.11.09.25.1.42,0,.17-.02.41-.07.71l-.2,1.12c-.03.19-.06.34-.07.45-.01.11,0,.19.03.26.03.06.08.1.15.12.07.02.17.03.31.04l-.04.25h-1.85l.04-.25c.13,0,.24-.02.32-.04.08-.02.15-.06.2-.12s.09-.14.12-.24.06-.25.09-.42l.16-.88c.09-.52.1-.9.01-1.12-.08-.22-.27-.33-.55-.33-.22,0-.43.06-.63.17s-.37.27-.5.46c-.03.05-.06.1-.08.14-.02.04-.05.09-.07.15-.02.06-.04.12-.05.19s-.03.16-.05.27l-.16.9Z"/><path d="m97.27,21.16c-.48.48-1.02.72-1.6.72-.28,0-.52-.05-.72-.14-.21-.09-.38-.22-.51-.39-.13-.17-.22-.36-.27-.59-.05-.23-.05-.49,0-.77s.14-.55.28-.79.3-.45.51-.62c.2-.17.43-.31.68-.41.25-.1.52-.15.8-.15.45,0,.78.12.99.37.2.25.27.6.19,1.05-.01.07-.03.1-.06.12-.03.01-.09.02-.18.02h-2.3s-.03.08-.05.14c-.01.05-.03.11-.04.18-.04.24-.05.46-.03.66.02.2.08.37.16.51.08.14.2.25.33.33.14.08.3.12.49.12.2,0,.39-.04.57-.13s.38-.23.59-.42l.18.2Zm-.82-1.89c.09,0,.17,0,.23,0,.06,0,.1-.01.13-.03.03-.01.05-.03.07-.06.01-.03.02-.06.03-.1.04-.21,0-.39-.12-.51s-.29-.19-.53-.19c-.5,0-.87.3-1.1.9h1.29Z"/><path d="m100.54,20.72c-.03.18-.05.32-.05.43,0,.11,0,.19.04.25s.09.1.17.13c.08.02.18.04.32.04l-.04.25h-1.93l.04-.25c.14,0,.26-.02.34-.05.09-.03.16-.07.22-.12s.11-.13.14-.23c.03-.1.07-.23.09-.4l.53-3.02c.04-.25.08-.46.1-.63.02-.17.03-.29.03-.35,0-.11-.05-.18-.13-.22-.08-.04-.23-.06-.46-.06l.04-.24,1.37-.26-.83,4.72Z"/><path d="m104.49,18.6h.03c.18-.18.37-.32.56-.42s.4-.15.63-.15c.27,0,.5.05.71.14.2.1.37.23.51.4.13.17.22.38.27.61.05.24.05.49,0,.77s-.14.54-.28.78c-.13.24-.3.44-.49.61-.19.17-.41.3-.65.39-.24.09-.49.14-.75.14-.21,0-.4-.04-.57-.11-.16-.07-.31-.19-.43-.35l-.18,1.02c-.03.19-.05.34-.05.45,0,.11.02.2.07.26.04.06.12.1.22.13s.24.04.41.04l-.04.25h-2.16l.04-.25c.14,0,.26-.02.35-.04s.17-.07.23-.13c.06-.06.11-.14.15-.25.04-.1.07-.24.1-.41l.46-2.62c.05-.27.08-.49.11-.67.02-.17.03-.29.02-.36,0-.11-.04-.19-.12-.23s-.23-.06-.47-.06l.04-.24,1.39-.27-.1.55Zm.17.2c-.08.09-.14.2-.2.33s-.1.29-.13.5l-.1.55c-.02.13-.04.23-.05.33,0,.09-.01.17,0,.23s.01.12.03.17c.01.05.04.1.06.15.08.15.19.27.32.35s.28.12.45.12c.32,0,.61-.14.85-.41.25-.27.41-.65.5-1.14.04-.24.05-.46.04-.66s-.06-.37-.14-.51c-.07-.14-.17-.25-.29-.33-.12-.08-.27-.12-.44-.12s-.33.04-.49.12c-.16.08-.29.19-.41.33Z"/><path d="m113.51,22.91c-.3.48-.68.72-1.13.72-.29,0-.42-.11-.38-.33.02-.12.08-.2.17-.26s.25-.1.48-.14c.1-.01.19-.03.26-.06.07-.03.14-.06.21-.1s.12-.09.18-.15.11-.14.17-.22l.33-.49-.83-2.92c-.04-.13-.07-.23-.1-.31-.03-.08-.07-.14-.11-.18-.04-.04-.09-.07-.15-.09-.06-.02-.13-.03-.22-.04l.04-.25h1.85l-.04.25c-.31,0-.48.08-.51.23-.01.06,0,.16,0,.29.01.13.04.26.07.4l.44,1.86h.04l.91-1.58c.09-.15.16-.28.22-.38.06-.1.1-.18.13-.24s.06-.12.07-.16.03-.08.03-.12c.02-.12,0-.2-.06-.24-.06-.04-.19-.06-.38-.06l.04-.25h1.54l-.04.25c-.09,0-.17.01-.23.03-.06.02-.14.08-.21.16s-.17.2-.27.35c-.1.15-.24.36-.39.62l-2.13,3.4Z"/><path d="m120.39,18.03c.27,0,.51.05.73.14.22.1.41.23.56.4.15.17.26.37.32.6s.07.48.02.76-.15.55-.3.78c-.15.24-.33.44-.54.62-.21.17-.44.31-.7.41-.26.1-.52.15-.78.15s-.5-.05-.72-.14c-.22-.1-.4-.23-.55-.4-.15-.17-.25-.38-.31-.62-.06-.24-.07-.5-.02-.79s.14-.53.29-.76c.14-.23.32-.43.53-.6.21-.17.44-.3.69-.39.25-.09.51-.14.77-.14Zm-.06.34c-.17,0-.34.04-.49.11-.16.07-.3.18-.42.32-.12.14-.23.3-.32.5-.09.19-.15.41-.19.64s-.05.46-.04.66c.02.2.07.36.14.5.08.14.18.24.3.32.13.07.28.11.46.11s.34-.04.5-.11c.16-.07.3-.18.43-.32.13-.14.24-.31.33-.5.09-.2.16-.41.2-.65s.05-.45.03-.64c-.02-.19-.07-.36-.15-.49s-.18-.25-.31-.32c-.13-.08-.29-.12-.46-.12Z"/><path d="m127.04,19.22c.03-.19.06-.34.07-.45.01-.11,0-.19-.03-.25-.03-.06-.08-.1-.15-.12s-.18-.04-.31-.05l.04-.25h1.27l-.38,2.15c-.05.27-.08.48-.1.65s-.03.29-.03.38c0,.06,0,.11.02.14.01.04.04.06.08.08s.09.04.16.04c.07,0,.15.01.26.01l-.04.25-1.17.08.07-.84h-.03c-.23.29-.47.5-.72.63-.25.13-.51.2-.76.2-.2,0-.38-.04-.55-.11-.17-.07-.29-.17-.36-.3-.06-.1-.09-.25-.1-.43,0-.18.02-.42.07-.71l.2-1.11c.03-.19.06-.34.07-.45.01-.11,0-.19-.03-.25-.03-.06-.08-.1-.15-.12-.07-.02-.18-.04-.31-.05l.04-.25h1.27l-.34,1.91c-.09.51-.1.88-.02,1.11.08.23.25.34.51.34.41,0,.78-.27,1.1-.8.03-.06.06-.11.08-.15.02-.05.04-.1.06-.15.02-.06.04-.12.05-.19.02-.07.03-.15.05-.25l.12-.69Z"/><path d="m135.42,19.44l.05-.29c.1-.57-.09-.85-.58-.85-.08,0-.15,0-.21.02-.06.01-.11.04-.15.07-.04.03-.09.08-.13.14-.04.06-.08.14-.13.22-.08.14-.14.23-.2.27-.06.04-.13.07-.23.07-.23,0-.33-.12-.29-.35s.19-.4.45-.52c.26-.12.61-.19,1.05-.19.47,0,.78.08.95.25.17.17.22.45.15.84l-.28,1.57c-.09.53-.04.8.17.8.07,0,.13,0,.19-.02.06-.02.12-.06.18-.13l.07.17c-.07.11-.19.2-.36.27-.16.07-.32.11-.49.11-.21,0-.35-.07-.42-.2-.08-.13-.09-.31-.05-.55h-.04c-.16.23-.36.41-.6.54-.24.13-.49.2-.75.2-.29,0-.51-.07-.65-.22-.14-.15-.19-.35-.15-.6.02-.11.06-.22.12-.32s.14-.2.24-.29c.1-.09.24-.19.4-.28.16-.09.35-.18.58-.28l1.09-.44Zm-.05.3c-.28.1-.53.2-.73.3-.2.1-.37.2-.5.29-.13.1-.23.2-.29.29-.07.1-.11.2-.13.3-.03.15,0,.28.09.38.09.1.21.15.38.15.12,0,.24-.03.36-.09.12-.06.22-.14.32-.25.1-.1.18-.23.25-.37.07-.14.12-.29.15-.45l.1-.55Z"/><path d="m141.46,21.23c-.2.21-.45.37-.74.48s-.58.17-.89.17c-.25,0-.47-.05-.66-.14-.19-.09-.35-.22-.47-.39-.12-.17-.2-.36-.24-.6s-.04-.49.01-.78.15-.57.28-.81c.14-.24.3-.45.5-.62s.43-.3.69-.39c.26-.09.53-.14.82-.14.18,0,.34.02.49.05.14.03.27.07.37.13.1.05.17.12.22.2.05.08.06.16.05.25-.02.09-.06.17-.13.22-.07.05-.16.08-.27.08-.08,0-.15-.02-.2-.05-.05-.04-.11-.11-.18-.23-.07-.11-.15-.18-.23-.23-.08-.04-.19-.07-.32-.07-.33,0-.6.13-.82.39s-.37.63-.46,1.13c-.09.54-.07.94.07,1.22s.39.42.76.42c.2,0,.39-.04.57-.12.19-.08.38-.2.59-.37l.17.2Z"/><path d="m144.68,20.7c-.03.19-.06.34-.07.45-.01.11,0,.2.03.26.03.06.08.1.15.12.07.02.17.03.31.04l-.04.25h-1.86l.04-.25c.14,0,.25-.02.33-.04.08-.02.15-.06.2-.11s.09-.14.12-.24.06-.25.09-.42l.52-2.93c.05-.28.08-.49.11-.66.02-.16.03-.29.03-.37,0-.06,0-.1-.02-.14-.01-.03-.04-.06-.08-.08s-.09-.04-.16-.05c-.07,0-.15-.01-.26-.01l.04-.24,1.34-.27-.47,2.67h.03c.09-.09.19-.18.31-.26s.24-.14.37-.2c.13-.06.27-.1.41-.13.14-.03.27-.05.4-.05.21,0,.41.04.57.11s.29.17.36.3c.06.11.09.25.1.42,0,.17-.02.41-.07.71l-.2,1.12c-.03.19-.06.34-.07.45-.01.11,0,.19.03.26.03.06.08.1.15.12.07.02.17.03.31.04l-.04.25h-1.85l.04-.25c.13,0,.24-.02.32-.04.08-.02.15-.06.2-.12s.09-.14.12-.24.06-.25.09-.42l.16-.88c.09-.52.1-.9.01-1.12-.08-.22-.27-.33-.55-.33-.22,0-.43.06-.63.17s-.37.27-.5.46c-.03.05-.06.1-.08.14-.02.04-.05.09-.07.15-.02.06-.04.12-.05.19s-.03.16-.05.27l-.16.9Z"/><path d="m151.18,20.7c-.03.18-.05.33-.05.44,0,.11.01.2.05.26.04.06.09.11.17.13.08.02.19.04.33.04l-.04.25h-2.01l.04-.25c.14,0,.26-.02.35-.05.09-.03.17-.07.23-.13.06-.06.11-.14.14-.25.03-.1.07-.24.1-.4l.16-.9c.05-.27.08-.49.11-.67.02-.18.03-.3.02-.36,0-.11-.04-.18-.12-.22s-.23-.06-.47-.06l.04-.25,1.42-.27-.47,2.67Zm-.08-4.09c.02-.12.08-.22.18-.31s.21-.13.33-.13.22.04.29.13.09.19.07.31-.08.22-.18.31-.21.13-.33.13-.22-.04-.29-.13-.09-.19-.07-.31Z"/><path d="m156.88,21.16c-.48.48-1.02.72-1.6.72-.28,0-.52-.05-.72-.14-.21-.09-.38-.22-.51-.39-.13-.17-.22-.36-.27-.59-.05-.23-.05-.49,0-.77s.14-.55.28-.79.3-.45.51-.62c.2-.17.43-.31.68-.41.25-.1.52-.15.8-.15.45,0,.78.12.99.37.2.25.27.6.19,1.05-.01.07-.03.1-.06.12-.03.01-.09.02-.18.02h-2.3s-.03.08-.05.14c-.01.05-.03.11-.04.18-.04.24-.05.46-.03.66.02.2.08.37.16.51.08.14.2.25.33.33.14.08.3.12.49.12.2,0,.39-.04.57-.13s.38-.23.59-.42l.18.2Zm-.82-1.89c.09,0,.17,0,.23,0,.06,0,.1-.01.13-.03.03-.01.05-.03.07-.06.01-.03.02-.06.03-.1.04-.21,0-.39-.12-.51s-.29-.19-.53-.19c-.5,0-.87.3-1.1.9h1.29Z"/><path d="m159.77,18.97c-.03-.14-.06-.25-.09-.33-.03-.08-.07-.14-.11-.19s-.1-.07-.16-.08-.14-.02-.22-.02l.04-.25h1.85l-.04.25c-.09,0-.17,0-.23.01-.06,0-.11.02-.15.03-.04.02-.07.04-.09.07-.02.03-.03.07-.04.13-.01.08-.02.15,0,.22,0,.07.02.14.03.21l.38,2.03h.03l.9-1.51c.14-.23.24-.42.31-.56.07-.14.11-.26.13-.37s0-.18-.05-.22c-.05-.04-.17-.06-.35-.06l.04-.25h1.39l-.04.25c-.07,0-.15.02-.21.06-.07.04-.13.08-.19.14-.05.05-.1.12-.15.21s-.11.18-.17.27-.11.19-.16.28c-.05.09-.09.16-.13.22l-1.45,2.37h-.41l-.67-2.92Z"/><path d="m167.8,21.16c-.48.48-1.02.72-1.6.72-.28,0-.52-.05-.72-.14-.21-.09-.38-.22-.51-.39-.13-.17-.22-.36-.27-.59-.05-.23-.05-.49,0-.77s.14-.55.28-.79c.14-.24.3-.45.5-.62.2-.17.43-.31.68-.41.25-.1.52-.15.8-.15.45,0,.78.12.99.37.2.25.27.6.19,1.05-.01.07-.03.1-.06.12-.03.01-.09.02-.18.02h-2.3s-.03.08-.04.14c-.02.05-.03.11-.04.18-.04.24-.05.46-.03.66.02.2.08.37.16.51.08.14.2.25.34.33.14.08.3.12.49.12.2,0,.39-.04.57-.13s.38-.23.59-.42l.18.2Zm-.82-1.89c.09,0,.17,0,.23,0,.06,0,.1-.01.13-.03.03-.01.05-.03.07-.06.01-.03.02-.06.03-.1.04-.21,0-.39-.12-.51-.11-.13-.29-.19-.53-.19-.5,0-.87.3-1.1.9h1.29Z"/><path d="m.04,34.54l.05-.26c.27-.14.49-.29.66-.43.17-.14.3-.32.41-.52h.2l-.16.88h.94l-.06.33h-.94l-.38,2.13c-.03.16-.05.3-.05.41,0,.11,0,.2.03.27.03.07.07.12.12.14.06.03.13.04.22.04.12,0,.22-.02.31-.07.09-.05.19-.13.29-.25l.15.13c-.1.17-.23.3-.41.4-.18.09-.38.14-.62.14-.31,0-.53-.07-.66-.22s-.18-.36-.13-.63l.44-2.48H.04Z"/><path d="m5.08,36.7c-.03.19-.06.34-.07.45-.01.11,0,.2.03.26.03.06.08.1.15.12.07.02.17.03.31.04l-.04.25h-1.86l.04-.25c.14,0,.25-.02.33-.04.08-.02.15-.06.2-.11s.09-.14.12-.24.06-.25.09-.42l.52-2.93c.05-.28.08-.49.11-.66.02-.16.03-.29.03-.37,0-.06,0-.1-.02-.14-.01-.03-.04-.06-.08-.08s-.09-.04-.16-.05c-.07,0-.15-.01-.26-.01l.04-.24,1.34-.27-.47,2.67h.03c.09-.09.19-.18.31-.26s.24-.14.37-.2c.13-.06.27-.1.41-.13.14-.03.27-.05.4-.05.21,0,.41.04.57.11s.29.17.36.3c.06.11.09.25.1.42,0,.17-.02.41-.07.71l-.2,1.12c-.03.19-.06.34-.07.45-.01.11,0,.19.03.26.03.06.08.1.15.12.07.02.17.03.31.04l-.04.25h-1.85l.04-.25c.13,0,.24-.02.32-.04.08-.02.15-.06.2-.12s.09-.14.12-.24.06-.25.09-.42l.16-.88c.09-.52.1-.9.01-1.12-.08-.22-.27-.33-.55-.33-.22,0-.43.06-.63.17s-.37.27-.5.46c-.03.05-.06.1-.08.14-.02.04-.05.09-.07.15-.02.06-.04.12-.05.19s-.03.16-.05.27l-.16.9Z"/><path d="m13.34,37.16c-.48.48-1.02.72-1.6.72-.28,0-.52-.05-.72-.14-.21-.09-.38-.22-.51-.39-.13-.17-.22-.36-.27-.59-.05-.23-.05-.49,0-.77s.14-.55.28-.79.3-.45.51-.62c.2-.17.43-.31.68-.41.25-.1.52-.15.8-.15.45,0,.78.12.99.37.2.25.27.6.19,1.05-.01.07-.03.1-.06.12-.03.01-.09.02-.18.02h-2.3s-.03.08-.05.14c-.01.05-.03.11-.04.18-.04.24-.05.46-.03.66.02.2.08.37.16.51.08.14.2.25.33.33.14.08.3.12.49.12.2,0,.39-.04.57-.13s.38-.23.59-.42l.18.2Zm-.82-1.89c.09,0,.17,0,.23,0,.06,0,.1-.01.13-.03.03-.01.05-.03.07-.06.01-.03.02-.06.03-.1.04-.21,0-.39-.12-.51s-.29-.19-.53-.19c-.5,0-.87.3-1.1.9h1.29Z"/><path d="m20.15,34.6h.03c.18-.18.37-.32.56-.42s.4-.15.63-.15c.27,0,.5.05.71.14.2.1.37.23.51.4.13.17.22.38.27.61.05.24.05.49,0,.77s-.14.54-.28.78c-.13.24-.3.44-.49.61-.19.17-.41.3-.65.39-.24.09-.49.14-.75.14-.21,0-.4-.04-.57-.11-.16-.07-.31-.19-.43-.35l-.18,1.02c-.03.19-.05.34-.05.45,0,.11.02.2.07.26.04.06.12.1.22.13s.24.04.41.04l-.04.25h-2.16l.04-.25c.14,0,.26-.02.35-.04s.17-.07.23-.13c.06-.06.11-.14.15-.25.04-.1.07-.24.1-.41l.46-2.62c.05-.27.08-.49.11-.67.02-.17.03-.29.02-.36,0-.11-.04-.19-.12-.23s-.23-.06-.47-.06l.04-.24,1.39-.27-.1.55Zm.17.2c-.08.09-.14.2-.2.33s-.1.29-.13.5l-.1.55c-.02.13-.04.23-.05.33,0,.09-.01.17,0,.23s.01.12.03.17c.01.05.04.1.06.15.08.15.19.27.32.35s.28.12.45.12c.32,0,.61-.14.85-.41.25-.27.41-.65.5-1.14.04-.24.05-.46.04-.66s-.06-.37-.14-.51c-.07-.14-.17-.25-.29-.33-.12-.08-.27-.12-.44-.12s-.33.04-.49.12c-.16.08-.29.19-.41.33Z"/><path d="m27.23,34.03c.27,0,.51.05.73.14.22.1.41.23.56.4.15.17.26.37.32.6s.07.48.02.76-.15.55-.3.78c-.15.24-.33.44-.54.62-.21.17-.44.31-.7.41-.26.1-.52.15-.78.15s-.5-.05-.72-.14c-.22-.1-.4-.23-.55-.4-.15-.17-.25-.38-.31-.62-.06-.24-.07-.5-.02-.79s.14-.53.29-.76c.14-.23.32-.43.53-.6.21-.17.44-.3.69-.39.25-.09.51-.14.77-.14Zm-.06.34c-.17,0-.34.04-.49.11-.16.07-.3.18-.42.32-.12.14-.23.3-.32.5-.09.19-.15.41-.19.64s-.05.46-.04.66c.02.2.07.36.14.5.08.14.18.24.3.32.13.07.28.11.46.11s.34-.04.5-.11c.16-.07.3-.18.43-.32.13-.14.24-.31.33-.5.09-.2.16-.41.2-.65s.05-.45.03-.64c-.02-.19-.07-.36-.15-.49s-.18-.25-.31-.32c-.13-.08-.29-.12-.46-.12Z"/><path d="m30.87,37.81h-.15l.21-1.2h.17c.07.66.34.99.82.99.19,0,.34-.05.47-.14.13-.09.21-.23.24-.42.01-.07.01-.13,0-.18-.01-.05-.04-.1-.09-.15-.05-.05-.12-.12-.21-.19-.09-.07-.22-.16-.37-.27-.14-.1-.26-.19-.36-.27s-.19-.17-.25-.26c-.06-.09-.11-.18-.13-.28-.02-.1-.02-.21,0-.34.03-.16.08-.3.16-.44.08-.13.17-.25.28-.34s.23-.17.37-.22c.14-.05.28-.08.43-.08.13,0,.25.02.38.06.13.04.24.09.33.16l.17-.15h.13l-.18,1.01h-.18c-.05-.28-.13-.49-.23-.61-.1-.12-.24-.18-.42-.18-.16,0-.29.04-.4.13s-.18.2-.21.35c-.01.08-.01.15,0,.21.02.06.05.12.09.17.05.06.11.11.18.17.08.06.17.12.28.2.18.13.33.24.46.34.12.1.22.19.29.29.07.1.12.19.14.3.02.1.02.22,0,.35-.06.33-.21.59-.46.78-.25.19-.55.28-.9.28s-.66-.1-.88-.31l-.18.25Z"/><path d="m36.62,36.7c-.03.18-.05.33-.05.44,0,.11.01.2.05.26.04.06.09.11.17.13.08.02.19.04.33.04l-.04.25h-2.01l.04-.25c.14,0,.26-.02.35-.05.09-.03.17-.07.23-.13.06-.06.11-.14.14-.25.03-.1.07-.24.1-.4l.16-.9c.05-.27.08-.49.11-.67.02-.18.03-.3.02-.36,0-.11-.04-.18-.12-.22s-.23-.06-.47-.06l.04-.25,1.42-.27-.47,2.67Zm-.08-4.09c.02-.12.08-.22.18-.31s.21-.13.33-.13.22.04.29.13.09.19.07.31-.08.22-.18.31-.21.13-.33.13-.22-.04-.29-.13-.09-.19-.07-.31Z"/><path d="m39.39,34.54l.05-.26c.27-.14.49-.29.66-.43.17-.14.3-.32.41-.52h.2l-.16.88h.94l-.06.33h-.94l-.38,2.13c-.03.16-.05.3-.05.41,0,.11,0,.2.03.27.03.07.07.12.12.14.06.03.13.04.22.04.12,0,.22-.02.31-.07.09-.05.19-.13.29-.25l.15.13c-.1.17-.23.3-.41.4-.18.09-.38.14-.62.14-.31,0-.53-.07-.66-.22s-.18-.36-.13-.63l.44-2.48h-.42Z"/><path d="m44.54,36.7c-.03.18-.05.33-.05.44,0,.11.01.2.05.26.04.06.09.11.17.13.08.02.19.04.33.04l-.04.25h-2.01l.04-.25c.14,0,.26-.02.35-.05.09-.03.17-.07.23-.13.06-.06.11-.14.14-.25.03-.1.07-.24.1-.4l.16-.9c.05-.27.08-.49.11-.67.02-.18.03-.3.02-.36,0-.11-.04-.18-.12-.22s-.23-.06-.47-.06l.04-.25,1.42-.27-.47,2.67Zm-.08-4.09c.02-.12.08-.22.18-.31s.21-.13.33-.13.22.04.29.13.09.19.07.31-.08.22-.18.31-.21.13-.33.13-.22-.04-.29-.13-.09-.19-.07-.31Z"/><path d="m47.72,34.97c-.03-.14-.06-.25-.09-.33-.03-.08-.07-.14-.11-.19s-.1-.07-.16-.08-.14-.02-.22-.02l.04-.25h1.85l-.04.25c-.09,0-.17,0-.23.01-.06,0-.11.02-.15.03-.04.02-.07.04-.09.07-.02.03-.03.07-.04.13-.01.08-.02.15,0,.22,0,.07.02.14.03.21l.38,2.03h.03l.9-1.51c.14-.23.24-.42.31-.56.07-.14.11-.26.13-.37s0-.18-.05-.22c-.05-.04-.17-.06-.35-.06l.04-.25h1.39l-.04.25c-.07,0-.15.02-.21.06-.07.04-.13.08-.19.14-.05.05-.1.12-.15.21s-.11.18-.17.27-.11.19-.16.28c-.05.09-.09.16-.13.22l-1.45,2.37h-.41l-.67-2.92Z"/><path d="m55.75,37.16c-.48.48-1.02.72-1.6.72-.28,0-.52-.05-.72-.14-.21-.09-.38-.22-.51-.39-.13-.17-.22-.36-.27-.59-.05-.23-.05-.49,0-.77s.14-.55.28-.79.3-.45.51-.62c.2-.17.43-.31.68-.41.25-.1.52-.15.8-.15.45,0,.78.12.99.37.2.25.27.6.19,1.05-.01.07-.03.1-.06.12-.03.01-.09.02-.18.02h-2.3s-.03.08-.05.14c-.01.05-.03.11-.04.18-.04.24-.05.46-.03.66.02.2.08.37.16.51.08.14.2.25.33.33.14.08.3.12.49.12.2,0,.39-.04.57-.13s.38-.23.59-.42l.18.2Zm-.82-1.89c.09,0,.17,0,.23,0,.06,0,.1-.01.13-.03.03-.01.05-.03.07-.06.01-.03.02-.06.03-.1.04-.21,0-.39-.12-.51s-.29-.19-.53-.19c-.5,0-.87.3-1.1.9h1.29Z"/><path d="m62.45,37.88h-.26l-.4-2.91c-.02-.13-.04-.24-.06-.32-.02-.08-.06-.14-.1-.19-.04-.05-.1-.08-.17-.09-.07-.02-.15-.02-.25-.02l.04-.25h1.85l-.04.25c-.18,0-.31.02-.4.06-.08.04-.13.11-.15.22,0,.05-.01.1,0,.16,0,.06,0,.14.01.23l.18,1.67h.03l1.49-2.6h.22l.47,2.6h.03l.62-1.13c.08-.15.15-.28.21-.39.06-.1.1-.19.13-.27s.06-.13.08-.18c.02-.05.03-.09.04-.13.02-.1,0-.17-.06-.2-.06-.03-.18-.05-.37-.05l.04-.25h1.4l-.04.25c-.07,0-.13.01-.18.03s-.11.06-.17.12-.13.15-.2.26c-.07.11-.16.26-.27.44l-1.56,2.68h-.26l-.4-2.58h-.03l-1.48,2.58Z"/><path d="m70.78,35.44l.05-.29c.1-.57-.09-.85-.58-.85-.08,0-.15,0-.21.02-.06.01-.11.04-.15.07-.04.03-.09.08-.13.14-.04.06-.08.14-.13.22-.08.14-.14.23-.2.27-.06.04-.13.07-.23.07-.23,0-.33-.12-.29-.35s.19-.4.45-.52c.26-.12.61-.19,1.05-.19.47,0,.78.08.95.25.17.17.22.45.15.84l-.28,1.57c-.09.53-.04.8.17.8.07,0,.13,0,.19-.02.06-.02.12-.06.18-.13l.07.17c-.07.11-.19.2-.36.27-.16.07-.32.11-.49.11-.21,0-.35-.07-.42-.2-.08-.13-.09-.31-.05-.55h-.04c-.16.23-.36.41-.6.54-.24.13-.49.2-.75.2-.29,0-.51-.07-.65-.22-.14-.15-.19-.35-.15-.6.02-.11.06-.22.12-.32s.14-.2.24-.29c.1-.09.24-.19.4-.28.16-.09.35-.18.58-.28l1.09-.44Zm-.05.3c-.28.1-.53.2-.73.3-.2.1-.37.2-.5.29-.13.1-.23.2-.29.29-.07.1-.11.2-.13.3-.03.15,0,.28.09.38.09.1.21.15.38.15.12,0,.24-.03.36-.09.12-.06.22-.14.32-.25.1-.1.18-.23.25-.37.07-.14.12-.29.15-.45l.1-.55Z"/><path d="m74.88,38.91c-.3.48-.68.72-1.13.72-.29,0-.42-.11-.38-.33.02-.12.08-.2.17-.26s.25-.1.48-.14c.1-.01.19-.03.26-.06.07-.03.14-.06.21-.1s.12-.09.18-.15.11-.14.17-.22l.33-.49-.83-2.92c-.04-.13-.07-.23-.1-.31-.03-.08-.07-.14-.11-.18-.04-.04-.09-.07-.15-.09-.06-.02-.13-.03-.22-.04l.04-.25h1.85l-.04.25c-.31,0-.48.08-.51.23-.01.06,0,.16,0,.29.01.13.04.26.07.4l.44,1.86h.04l.91-1.58c.09-.15.16-.28.22-.38.06-.1.1-.18.13-.24s.06-.12.07-.16.03-.08.03-.12c.02-.12,0-.2-.06-.24-.06-.04-.19-.06-.38-.06l.04-.25h1.54l-.04.25c-.09,0-.17.01-.23.03-.06.02-.14.08-.21.16s-.17.2-.27.35c-.1.15-.24.36-.39.62l-2.13,3.4Z"/><path d="m85.05,34.03c.27,0,.51.05.73.14.22.1.41.23.56.4.15.17.26.37.32.6s.07.48.02.76-.15.55-.3.78c-.15.24-.33.44-.54.62-.21.17-.44.31-.7.41-.26.1-.52.15-.78.15s-.5-.05-.72-.14c-.22-.1-.4-.23-.55-.4-.15-.17-.25-.38-.31-.62-.06-.24-.07-.5-.02-.79s.14-.53.29-.76c.14-.23.32-.43.53-.6.21-.17.44-.3.69-.39.25-.09.51-.14.77-.14Zm-.06.34c-.17,0-.34.04-.49.11-.16.07-.3.18-.42.32-.12.14-.23.3-.32.5-.09.19-.15.41-.19.64s-.05.46-.04.66c.02.2.07.36.14.5.08.14.18.24.3.32.13.07.28.11.46.11s.34-.04.5-.11c.16-.07.3-.18.43-.32.13-.14.24-.31.33-.5.09-.2.16-.41.2-.65s.05-.45.03-.64c-.02-.19-.07-.36-.15-.49s-.18-.25-.31-.32c-.13-.08-.29-.12-.46-.12Z"/><path d="m88.76,34.21h.79l.09-.5c.09-.54.31-.96.65-1.26.34-.3.76-.45,1.29-.45.29,0,.52.04.68.13.17.09.24.2.21.34-.02.09-.06.17-.13.23-.07.06-.15.09-.24.09-.06,0-.11-.02-.17-.05-.06-.03-.13-.09-.22-.18-.1-.1-.18-.16-.24-.19-.06-.03-.13-.05-.22-.05-.28,0-.51.14-.68.43-.06.09-.11.21-.15.34-.04.14-.08.32-.12.56l-.1.55h1.13l-.06.33h-1.13l-.38,2.14c-.03.17-.05.31-.04.43,0,.11.02.2.06.27.04.07.11.11.2.14.09.03.21.04.36.05l-.04.25h-1.99l.04-.25c.13,0,.24-.02.32-.04.08-.02.15-.06.2-.12.05-.06.1-.14.13-.25.03-.1.06-.25.1-.42l.39-2.2h-.79l.06-.33Z"/><path d="m97.04,36.72c-.03.18-.05.32-.05.43,0,.11,0,.19.04.25s.09.1.17.13c.08.02.18.04.32.04l-.04.25h-1.93l.04-.25c.14,0,.26-.02.34-.05.09-.03.16-.07.22-.12s.11-.13.14-.23c.03-.1.07-.23.09-.4l.53-3.02c.04-.25.08-.46.1-.63.02-.17.03-.29.03-.35,0-.11-.05-.18-.13-.22-.08-.04-.23-.06-.46-.06l.04-.24,1.37-.26-.83,4.72Z"/><path d="m100.99,36.7c-.03.18-.05.33-.05.44,0,.11.01.2.05.26.04.06.09.11.17.13.08.02.19.04.33.04l-.04.25h-2.01l.04-.25c.14,0,.26-.02.35-.05.09-.03.17-.07.23-.13.06-.06.11-.14.14-.25.03-.1.07-.24.1-.4l.16-.9c.05-.27.08-.49.11-.67.02-.18.03-.3.02-.36,0-.11-.04-.18-.12-.22s-.23-.06-.47-.06l.04-.25,1.42-.27-.47,2.67Zm-.08-4.09c.02-.12.08-.22.18-.31s.21-.13.33-.13.22.04.29.13.09.19.07.31-.08.22-.18.31-.21.13-.33.13-.22-.04-.29-.13-.09-.19-.07-.31Z"/><path d="m103.88,34.21h.79l.09-.5c.09-.54.31-.96.65-1.26.34-.3.76-.45,1.29-.45.29,0,.52.04.68.13.17.09.24.2.21.34-.02.09-.06.17-.13.23-.07.06-.15.09-.24.09-.06,0-.11-.02-.17-.05-.06-.03-.13-.09-.22-.18-.1-.1-.18-.16-.24-.19-.06-.03-.13-.05-.22-.05-.28,0-.51.14-.68.43-.06.09-.11.21-.15.34-.04.14-.08.32-.12.56l-.1.55h1.13l-.06.33h-1.13l-.38,2.14c-.03.17-.05.31-.04.43,0,.11.02.2.06.27.04.07.11.11.2.14.09.03.21.04.36.05l-.04.25h-1.99l.04-.25c.13,0,.24-.02.32-.04.08-.02.15-.06.2-.12.05-.06.1-.14.13-.25.03-.1.06-.25.1-.42l.39-2.2h-.79l.06-.33Z"/><path d="m111.04,37.16c-.48.48-1.02.72-1.6.72-.28,0-.52-.05-.72-.14-.21-.09-.38-.22-.51-.39-.13-.17-.22-.36-.27-.59-.05-.23-.05-.49,0-.77s.14-.55.28-.79.3-.45.51-.62c.2-.17.43-.31.68-.41.25-.1.52-.15.8-.15.45,0,.78.12.99.37.2.25.27.6.19,1.05-.01.07-.03.1-.06.12-.03.01-.09.02-.18.02h-2.3s-.03.08-.05.14c-.01.05-.03.11-.04.18-.04.24-.05.46-.03.66.02.2.08.37.16.51.08.14.2.25.33.33.14.08.3.12.49.12.2,0,.39-.04.57-.13s.38-.23.59-.42l.18.2Zm-.82-1.89c.09,0,.17,0,.23,0,.06,0,.1-.01.13-.03.03-.01.05-.03.07-.06.01-.03.02-.06.03-.1.04-.21,0-.39-.12-.51s-.29-.19-.53-.19c-.5,0-.87.3-1.1.9h1.29Z"/><path d="m118.67,35.44l.05-.29c.1-.57-.09-.85-.58-.85-.08,0-.15,0-.21.02-.06.01-.11.04-.15.07-.04.03-.09.08-.13.14-.04.06-.08.14-.13.22-.08.14-.14.23-.2.27-.06.04-.13.07-.23.07-.23,0-.33-.12-.29-.35s.19-.4.45-.52c.26-.12.61-.19,1.05-.19.47,0,.78.08.95.25.17.17.22.45.15.84l-.28,1.57c-.09.53-.04.8.17.8.07,0,.13,0,.19-.02.06-.02.12-.06.18-.13l.07.17c-.07.11-.19.2-.36.27-.16.07-.32.11-.49.11-.21,0-.35-.07-.42-.2-.08-.13-.09-.31-.05-.55h-.04c-.16.23-.36.41-.6.54-.24.13-.49.2-.75.2-.29,0-.51-.07-.65-.22-.14-.15-.19-.35-.15-.6.02-.11.06-.22.12-.32s.14-.2.24-.29c.1-.09.24-.19.4-.28.16-.09.35-.18.58-.28l1.09-.44Zm-.05.3c-.28.1-.53.2-.73.3-.2.1-.37.2-.5.29-.13.1-.23.2-.29.29-.07.1-.11.2-.13.3-.03.15,0,.28.09.38.09.1.21.15.38.15.12,0,.24-.03.36-.09.12-.06.22-.14.32-.25.1-.1.18-.23.25-.37.07-.14.12-.29.15-.45l.1-.55Z"/><path d="m121.82,37.81h-.15l.21-1.2h.17c.07.66.34.99.82.99.19,0,.34-.05.47-.14.13-.09.21-.23.24-.42.01-.07.01-.13,0-.18-.01-.05-.04-.1-.09-.15-.05-.05-.12-.12-.21-.19-.09-.07-.22-.16-.37-.27-.14-.1-.26-.19-.36-.27s-.19-.17-.25-.26c-.06-.09-.11-.18-.13-.28-.02-.1-.02-.21,0-.34.03-.16.08-.3.16-.44.08-.13.17-.25.28-.34s.23-.17.37-.22c.14-.05.28-.08.43-.08.13,0,.25.02.38.06.13.04.24.09.33.16l.17-.15h.13l-.18,1.01h-.18c-.05-.28-.13-.49-.23-.61-.1-.12-.24-.18-.42-.18-.16,0-.29.04-.4.13s-.18.2-.21.35c-.01.08-.01.15,0,.21.02.06.05.12.09.17.05.06.11.11.18.17.08.06.17.12.28.2.18.13.33.24.46.34.12.1.22.19.29.29.07.1.12.19.14.3.02.1.02.22,0,.35-.06.33-.21.59-.46.78-.25.19-.55.28-.9.28s-.66-.1-.88-.31l-.18.25Z"/><path d="m130.7,38.91c-.3.48-.68.72-1.13.72-.29,0-.42-.11-.38-.33.02-.12.08-.2.17-.26s.25-.1.48-.14c.1-.01.19-.03.26-.06.07-.03.14-.06.21-.1s.12-.09.18-.15.11-.14.17-.22l.33-.49-.83-2.92c-.04-.13-.07-.23-.1-.31-.03-.08-.07-.14-.11-.18-.04-.04-.09-.07-.15-.09-.06-.02-.13-.03-.22-.04l.04-.25h1.85l-.04.25c-.31,0-.48.08-.51.23-.01.06,0,.16,0,.29.01.13.04.26.07.4l.44,1.86h.04l.91-1.58c.09-.15.16-.28.22-.38.06-.1.1-.18.13-.24s.06-.12.07-.16.03-.08.03-.12c.02-.12,0-.2-.06-.24-.06-.04-.19-.06-.38-.06l.04-.25h1.54l-.04.25c-.09,0-.17.01-.23.03-.06.02-.14.08-.21.16s-.17.2-.27.35c-.1.15-.24.36-.39.62l-2.13,3.4Z"/><path d="m137.57,34.03c.27,0,.51.05.73.14.22.1.41.23.56.4.15.17.26.37.32.6s.07.48.02.76-.15.55-.3.78c-.15.24-.33.44-.54.62-.21.17-.44.31-.7.41-.26.1-.52.15-.78.15s-.5-.05-.72-.14c-.22-.1-.4-.23-.55-.4-.15-.17-.25-.38-.31-.62-.06-.24-.07-.5-.02-.79s.14-.53.29-.76c.14-.23.32-.43.53-.6.21-.17.44-.3.69-.39.25-.09.51-.14.77-.14Zm-.06.34c-.17,0-.34.04-.49.11-.16.07-.3.18-.42.32-.12.14-.23.3-.32.5-.09.19-.15.41-.19.64s-.05.46-.04.66c.02.2.07.36.14.5.08.14.18.24.3.32.13.07.28.11.46.11s.34-.04.5-.11c.16-.07.3-.18.43-.32.13-.14.24-.31.33-.5.09-.2.16-.41.2-.65s.05-.45.03-.64c-.02-.19-.07-.36-.15-.49s-.18-.25-.31-.32c-.13-.08-.29-.12-.46-.12Z"/><path d="m144.22,35.22c.03-.19.06-.34.07-.45.01-.11,0-.19-.03-.25-.03-.06-.08-.1-.15-.12s-.18-.04-.31-.05l.04-.25h1.27l-.38,2.15c-.05.27-.08.48-.1.65s-.03.29-.03.38c0,.06,0,.11.02.14.01.04.04.06.08.08s.09.04.16.04c.07,0,.15.01.26.01l-.04.25-1.17.08.07-.84h-.03c-.23.29-.47.5-.72.63-.25.13-.51.2-.76.2-.2,0-.38-.04-.55-.11-.17-.07-.29-.17-.36-.3-.06-.1-.09-.25-.1-.43,0-.18.02-.42.07-.71l.2-1.11c.03-.19.06-.34.07-.45.01-.11,0-.19-.03-.25-.03-.06-.08-.1-.15-.12-.07-.02-.18-.04-.31-.05l.04-.25h1.27l-.34,1.91c-.09.51-.1.88-.02,1.11.08.23.25.34.51.34.41,0,.78-.27,1.1-.8.03-.06.06-.11.08-.15.02-.05.04-.1.06-.15.02-.06.04-.12.05-.19.02-.07.03-.15.05-.25l.12-.69Z"/><path d="m152.61,35.44l.05-.29c.1-.57-.09-.85-.58-.85-.08,0-.15,0-.21.02-.06.01-.11.04-.15.07-.04.03-.09.08-.13.14-.04.06-.08.14-.13.22-.08.14-.14.23-.2.27-.06.04-.13.07-.23.07-.23,0-.33-.12-.29-.35s.19-.4.45-.52c.26-.12.61-.19,1.05-.19.47,0,.78.08.95.25.17.17.22.45.15.84l-.28,1.57c-.09.53-.04.8.17.8.07,0,.13,0,.19-.02.06-.02.12-.06.18-.13l.07.17c-.07.11-.19.2-.36.27-.16.07-.32.11-.49.11-.21,0-.35-.07-.42-.2-.08-.13-.09-.31-.05-.55h-.04c-.16.23-.36.41-.6.54-.24.13-.49.2-.75.2-.29,0-.51-.07-.65-.22-.14-.15-.19-.35-.15-.6.02-.11.06-.22.12-.32s.14-.2.24-.29c.1-.09.24-.19.4-.28.16-.09.35-.18.58-.28l1.09-.44Zm-.05.3c-.28.1-.53.2-.73.3-.2.1-.37.2-.5.29-.13.1-.23.2-.29.29-.07.1-.11.2-.13.3-.03.15,0,.28.09.38.09.1.21.15.38.15.12,0,.24-.03.36-.09.12-.06.22-.14.32-.25.1-.1.18-.23.25-.37.07-.14.12-.29.15-.45l.1-.55Z"/><path d="m156.98,36.7c-.03.19-.06.34-.07.45-.01.11,0,.2.03.26.03.06.08.1.15.12.07.02.17.03.31.04l-.04.25h-1.86l.04-.25c.14,0,.25-.02.33-.04.08-.02.15-.06.2-.12s.09-.14.12-.24.06-.25.09-.42l.14-.82c.06-.32.1-.56.12-.74.02-.18.02-.31,0-.39-.03-.08-.08-.13-.16-.15-.08-.02-.2-.02-.35-.02l.04-.25,1.27-.27-.06.87h.03c.09-.14.18-.27.3-.39.11-.12.23-.22.35-.3s.25-.15.37-.19c.13-.05.25-.07.37-.07.15,0,.26.04.33.11s.1.17.08.29c-.02.11-.07.2-.15.26-.08.06-.19.09-.32.09-.08,0-.14,0-.18-.03-.05-.02-.09-.04-.13-.06-.04-.02-.07-.04-.1-.06s-.07-.03-.11-.03c-.13,0-.27.08-.42.24-.16.16-.29.37-.4.61-.06.14-.12.29-.17.46-.05.17-.09.35-.13.54l-.04.24Z"/><path d="m163.7,37.16c-.48.48-1.02.72-1.6.72-.28,0-.52-.05-.72-.14-.21-.09-.38-.22-.51-.39-.13-.17-.22-.36-.27-.59-.05-.23-.05-.49,0-.77s.14-.55.28-.79c.14-.24.3-.45.5-.62.2-.17.43-.31.68-.41.25-.1.52-.15.8-.15.45,0,.78.12.99.37.2.25.27.6.19,1.05-.01.07-.03.1-.06.12-.03.01-.09.02-.18.02h-2.3s-.03.08-.04.14c-.02.05-.03.11-.04.18-.04.24-.05.46-.03.66.02.2.08.37.16.51.08.14.2.25.34.33.14.08.3.12.49.12.2,0,.39-.04.57-.13s.38-.23.59-.42l.18.2Zm-.82-1.89c.09,0,.17,0,.23,0,.06,0,.1-.01.13-.03.03-.01.05-.03.07-.06.01-.03.02-.06.03-.1.04-.21,0-.39-.12-.51-.11-.13-.29-.19-.53-.19-.5,0-.87.3-1.1.9h1.29Z"/><path d="m165.91,37.43c.02-.13.09-.24.19-.33.1-.09.22-.13.35-.13s.23.04.3.13c.07.09.1.2.08.33s-.09.23-.19.32c-.1.09-.22.13-.35.13s-.23-.04-.3-.13c-.07-.09-.1-.2-.08-.32Z"/></g></g></svg>