<?xml version="1.0" encoding="UTF-8"?><svg id="_レイヤー_2" xmlns="http://www.w3.org/2000/svg" viewBox="0 0 361.89 220.05"><g id="_レイヤー_1-2"><g><g><path d="m70.4,202.45c-.73,1.13-.9,1.75-.9,3.1v12.47c0,1.41-.28,1.69-1.69,1.69h-3.05c-1.41,0-1.69-.28-1.69-1.69v-12.41c0-1.35-.23-1.97-.96-3.1l-13.54-19.86c-.28-.45-.45-.73-.45-.96,0-.39.39-.45,1.18-.45h3.78c1.41,0,1.86.23,2.65,1.41l9.59,14.16c.4.56.68.85.96.85s.56-.28.9-.85l9.14-14.16c.79-1.18,1.13-1.41,2.59-1.41h3.55c.85,0,1.24.06,1.24.45,0,.23-.17.51-.45.96l-12.86,19.8Z"/><path d="m163.77,219.72c-1.41,0-1.69-.28-1.69-1.69v-35.09c0-1.41.28-1.69,1.69-1.69h17.6c1.41,0,1.69.28,1.69,1.69v2.59c0,1.41-.28,1.69-1.69,1.69h-11.34c-1.41,0-1.69.28-1.69,1.69v5.87c0,1.41.28,1.69,1.69,1.69h10.15c1.41,0,1.69.28,1.69,1.69v2.37c0,1.41-.28,1.69-1.69,1.69h-10.15c-1.41,0-1.69.28-1.69,1.69v8.24c0,1.41.28,1.69,1.69,1.69h12.47c1.41,0,1.69.28,1.69,1.69v2.48c0,1.41-.28,1.69-1.69,1.69h-18.73Z"/><path d="m196.43,187.22c-1.41,0-1.69-.28-1.69-1.69v-2.59c0-1.41.28-1.69,1.69-1.69h26.96c1.41,0,1.69.28,1.69,1.69v2.59c0,1.41-.28,1.69-1.69,1.69h-8.52c-1.41,0-1.69.28-1.69,1.69v29.11c0,1.41-.28,1.69-1.69,1.69h-3.1c-1.41,0-1.69-.28-1.69-1.69v-29.11c0-1.41-.28-1.69-1.69-1.69h-8.57Z"/><path d="m263.28,219.72c-1.41,0-1.69-.28-1.69-1.69v-13.93c0-1.41-.28-1.69-1.69-1.69h-15.51c-1.41,0-1.69.28-1.69,1.69v13.93c0,1.41-.28,1.69-1.69,1.69h-2.99c-1.41,0-1.69-.28-1.69-1.69v-35.09c0-1.41.28-1.69,1.69-1.69h2.99c1.41,0,1.69.28,1.69,1.69v11.79c0,1.41.28,1.69,1.69,1.69h15.51c1.41,0,1.69-.28,1.69-1.69v-11.79c0-1.41.28-1.69,1.69-1.69h2.99c1.41,0,1.69.28,1.69,1.69v35.09c0,1.41-.28,1.69-1.69,1.69h-2.99Z"/><path d="m279.7,200.76c0-12.02,8.07-19.86,19.4-19.86s18.56,9.03,18.56,19.07c0,12.8-9.03,20.08-19.46,20.08-11.79,0-18.5-9.19-18.5-19.29Zm6.54.06c0,7.33,4.34,13.26,12.13,13.26,6.99,0,12.69-5.13,12.69-13.71,0-7.28-4.51-13.14-12.18-13.14s-12.64,5.7-12.64,13.59Z"/><path d="m331.03,219.72c-1.41,0-1.69-.28-1.69-1.69v-35.09c0-1.41.28-1.69,1.69-1.69h14.78c9.53,0,16.08,6.15,16.08,18.11,0,12.69-7.73,20.36-17.94,20.36h-12.92Zm14.16-32.49h-7.78c-1.41,0-1.69.28-1.69,1.69v23.3c0,1.41.28,1.69,1.69,1.69h6.37c7.16,0,11.56-5.36,11.56-14.22,0-7.84-3.67-12.47-10.15-12.47Z"/><path d="m130.54,207.31c-.28.34-.68.34-.9.34s-.62,0-.9-.34l-10.55-11.67c-.34-.39-.62-.56-.79-.56-.28,0-.39.28-.39,1.02v21.94c0,1.41-.28,1.69-1.69,1.69h-2.99c-1.41,0-1.69-.28-1.69-1.69v-35.09c0-1.41.34-1.69,1.75-1.69h.17c1.41,0,1.86.23,2.82,1.3l13.14,14.95c.51.51.79.79,1.13.79s.68-.28,1.13-.79l13.14-14.95c.96-1.07,1.41-1.3,2.82-1.3h.17c1.41,0,1.75.28,1.75,1.69v35.09c0,1.41-.28,1.69-1.69,1.69h-2.99c-1.41,0-1.69-.28-1.69-1.69v-21.94c0-.73-.11-1.02-.39-1.02-.17,0-.45.17-.79.56l-10.55,11.67Z"/><path d="m19.91,207.31c-.28.34-.68.34-.9.34s-.62,0-.9-.34l-10.55-11.67c-.34-.39-.62-.56-.79-.56-.28,0-.39.28-.39,1.02v21.94c0,1.41-.28,1.69-1.69,1.69H1.69c-1.41,0-1.69-.28-1.69-1.69v-35.09c0-1.41.34-1.69,1.75-1.69h.17c1.41,0,1.86.23,2.82,1.3l13.14,14.95c.51.51.79.79,1.13.79s.68-.28,1.13-.79l13.14-14.95c.96-1.07,1.41-1.3,2.82-1.3h.17c1.41,0,1.75.28,1.75,1.69v35.09c0,1.41-.28,1.69-1.69,1.69h-2.99c-1.41,0-1.69-.28-1.69-1.69v-21.94c0-.73-.11-1.02-.39-1.02-.17,0-.45.17-.79.56l-10.55,11.67Z"/></g><g><path d="m248.97,127.96c0,4.46-3.65,8.1-8.1,8.1h-46.96c-4.46,0-5.66-2.71-2.67-6.01l52.3-57.89c2.99-3.31,5.43-2.37,5.43,2.09v53.71Z"/><path d="m112.91,127.96c0,4.46,3.65,8.1,8.1,8.1h46.96c4.46,0,5.66-2.71,2.67-6.01l-52.3-57.89c-2.99-3.31-5.43-2.37-5.43,2.09v53.71Z"/><path d="m243.62,6.09l-56.61,64.39c-2.43,2.73-4.25,4.25-6.07,4.25s-3.34-1.52-6.07-4.25L118.26,6.09c-2.94-3.35-1.7-6.09,2.75-6.09h119.86c4.46,0,5.7,2.74,2.75,6.09"/></g></g></g></svg>