<?xml version="1.0" encoding="UTF-8"?><svg id="_レイヤー_2" xmlns="http://www.w3.org/2000/svg" viewBox="0 0 109.72 129.84"><defs><style>.cls-1{fill:#040000;}</style></defs><g id="Layer_1"><path class="cls-1" d="m54.86,64.69c-17.83,0-32.34-14.51-32.34-32.34S37.02,0,54.86,0s32.34,14.51,32.34,32.34-14.51,32.34-32.34,32.34Zm0-52.49c-11.11,0-20.14,9.04-20.14,20.14s9.04,20.14,20.14,20.14,20.14-9.04,20.14-20.14-9.04-20.14-20.14-20.14Z"/><path class="cls-1" d="m99.12,129.84c-.88,0-1.6-.72-1.6-1.6v-28.91c0-10.28-8.36-18.64-18.64-18.64h-4.16c-6.21,2.78-13.08,4.26-19.86,4.26s-13.64-1.47-19.86-4.26h-4.16c-10.28,0-18.64,8.36-18.64,18.64v28.91c0,.88-.72,1.6-1.6,1.6H1.6c-.88,0-1.6-.72-1.6-1.6v-28.91c0-17.01,13.84-30.84,30.84-30.84h6.57c.25,0,.51.06.74.18,5.21,2.7,10.83,4.08,16.7,4.08s11.49-1.37,16.7-4.08c.23-.12.48-.18.74-.18h6.58c17.01,0,30.84,13.84,30.84,30.84v28.91c0,.88-.72,1.6-1.6,1.6h-9Z"/></g></svg>